<?xml version="1.0" encoding="UTF-8" standalone="no"?>
<!-- Created with Inkscape (http://www.inkscape.org/) -->

<svg
   width="57.196358mm"
   height="28.880121mm"
   viewBox="0 0 57.196358 28.880121"
   version="1.1"
   id="svg1"
   xmlns="http://www.w3.org/2000/svg"
   xmlns:svg="http://www.w3.org/2000/svg">
  <defs
     id="defs1" />
  <g
     id="layer2">
    <path
       style="opacity:1;fill:#ffffff;fill-opacity:1;stroke-width:0.331322"
       d="M 18.732418,18.388383 35.712338,1.1596278 h 34.32524 34.325242 L 100.72011,4.7856291 97.077411,8.4116304 70.571633,8.631314 44.065855,8.8509972 40.149541,12.708554 c -2.153972,2.121657 -6.160062,6.206356 -8.902419,9.07711 -4.194862,4.391263 -4.920814,5.298224 -4.574664,5.715308 0.358707,0.432216 3.65817,0.495756 25.74333,0.495756 h 25.331894 l -3.588025,3.802632 -3.588024,3.802631 -34.409569,0.0076 -34.4095654,0.0076 z"
       id="path6"
       transform="scale(0.26458333)" />
    <path
       style="opacity:1;fill:#000000;fill-opacity:1;stroke-width:0.331322"
       d="M 1.1596278,72.559566 V 37.27375 H 35.7828 70.405972 V 72.559566 107.84538 H 35.7828 1.1596278 Z"
       id="path1"
       transform="scale(0.26458333)" />
    <path
       style="opacity:1;fill:#000000;fill-opacity:1;stroke-width:0.331322"
       d="m 81.008283,49.598937 c 0,-16.772267 -0.09629,-22.228613 -0.397587,-22.529912 -0.299097,-0.299098 -4.69005,-0.397586 -17.725738,-0.397586 H 45.556805 v -8.283056 -8.283055 h 25.843134 25.843133 v 30.812966 30.812967 h -8.117394 -8.117395 z"
       id="path2"
       transform="scale(0.26458333)" />
    <path
       style="display:inline;opacity:1;fill:#3e3e3e;fill-opacity:1;stroke-width:0.331322"
       d="m 81.339605,80.676961 v -6.957767 h 7.037639 7.037638 l -6.951849,6.957767 c -3.823517,3.826772 -6.990454,6.957767 -7.037638,6.957767 -0.04718,0 -0.08579,-3.130995 -0.08579,-6.957767 z"
       id="path11"
       transform="scale(0.26458333)" />
    <path
       style="display:inline;opacity:1;fill:#4e4e4e;fill-opacity:1;stroke-width:0.331322"
       d="m 31.913176,23.109725 c 1.647452,-1.776715 5.018489,-5.241103 7.491193,-7.698638 l 4.495825,-4.468247 v 7.698638 7.698639 h -7.491193 -7.491193 z"
       id="path12"
       transform="scale(0.26458333)" />
    <path
       style="opacity:1;fill:#6f6f6f;fill-opacity:1;stroke-width:0.331322"
       d="M 72.393905,70.930525 V 36.0036 l 3.561714,-3.354488 3.561714,-3.354488 0.08455,30.661001 c 0.08064,29.243033 0.112054,30.661003 0.67935,30.661003 0.342616,0 4.34544,-3.851267 9.440967,-9.083507 l 8.846164,-9.083507 V 40.857914 9.2662131 l 3.810206,-3.7993964 3.8102,-3.7993965 V 36.71913 71.770837 L 89.410257,88.814145 c -9.228183,9.373818 -16.832029,17.043305 -16.897434,17.043305 -0.0654,0 -0.118918,-15.717118 -0.118918,-34.926925 z"
       id="path10"
       transform="scale(0.26458333)" />
  </g>
  <g
     id="layer1"
     transform="translate(-36.315774,-17.580919)"
     style="fill:#000000;fill-opacity:1">
    <text
       xml:space="preserve"
       style="font-size:13.1899px;line-height:2.5;font-family:Cube;-inkscape-font-specification:Cube;text-align:center;letter-spacing:0.20403px;word-spacing:0px;writing-mode:lr-tb;direction:ltr;text-anchor:middle;display:inline;opacity:0.5;fill:#000000;fill-opacity:1;stroke-width:0.309137"
       x="65.499176"
       y="46.045921"
       id="text1"
       transform="scale(0.99106526,1.0090153)"><tspan
         id="tspan1"
         style="fill:#000000;fill-opacity:1;stroke-width:0.309137"
         x="65.601189"
         y="46.045921">CM</tspan></text>
    <path
       style="opacity:1;fill:#ffffff;fill-opacity:1;stroke-width:0.331322"
       d="M 110.16464,72.559566 V 37.27375 h 8.20276 8.20276 l 8.11486,8.139259 c 4.46317,4.476593 8.53714,8.446502 9.05327,8.82202 l 0.93841,0.682761 8.86128,-8.82202 8.86128,-8.82202 h 8.50586 8.50586 v 35.285816 35.285814 h -8.11739 -8.1174 V 85.824111 63.802842 l -0.70746,-0.378624 c -0.64997,-0.347851 -1.40203,0.31555 -9.25317,8.162341 l -8.54571,8.540964 -2.5916,-2.353495 c -1.42538,-1.294419 -5.3421,-5.115568 -8.70383,-8.491439 -4.70926,-4.729064 -6.21126,-6.055769 -6.54362,-5.779935 -0.34635,0.287453 -0.43137,4.692363 -0.43137,22.350368 v 21.992358 h -8.1174 -8.11739 z"
       id="path7"
       transform="matrix(0.26458333,0,0,0.26458333,36.315774,17.580919)" />
    <path
       style="opacity:1;fill:#000000;fill-opacity:1;stroke-width:0.331322"
       d="m 181.4212,71.068616 8e-4,-34.954494 16.80306,-17.104917 16.80306,-17.1049178 0.0844,34.7903118 0.0844,34.790307 -3.14883,3.353571 c -1.73185,1.844461 -9.33155,9.615557 -16.88821,17.269101 L 181.4204,106.02311 Z"
       id="path4"
       transform="matrix(0.26458333,0,0,0.26458333,36.315774,17.580919)" />
    <path
       style="display:inline;opacity:1;fill:#000000;fill-opacity:1;stroke-width:0.331322"
       d="M 128.05604,86.002414 V 65.984623 l 8.08693,8.008814 c 4.44782,4.404847 8.21361,8.008813 8.36843,8.008813 0.15481,0 3.93203,-3.652828 8.39381,-8.117395 4.46177,-4.464567 8.22528,-8.117394 8.36335,-8.117394 0.13806,0 0.25102,1.401989 0.25102,3.115531 v 3.115531 l -12.12811,12.373783 c -6.67046,6.80558 -14.19976,14.46046 -16.73177,17.010844 l -4.60366,4.63706 z"
       id="path3"
       transform="matrix(0.26458333,0,0,0.26458333,36.315774,17.580919)" />
    <path
       style="opacity:1;fill:#6f6f6f;fill-opacity:1;stroke-width:0.331322"
       d="m 136.19599,44.585405 -8.25554,-8.260489 6.73687,-6.897502 c 3.70527,-3.793627 11.4365,-11.683764 17.1805,-17.533638 l 10.44364,-10.6361361 8.14061,8.2764121 c 4.47733,4.552027 8.14061,8.399605 8.14061,8.550175 0,0.297218 -33.66418,34.761667 -33.9545,34.761667 -0.0972,0 -3.89165,-3.71722 -8.43219,-8.260489 z"
       id="path5"
       transform="matrix(0.26458333,0,0,0.26458333,36.315774,17.580919)" />
    <path
       style="opacity:1;fill:#ffffff;fill-opacity:1;stroke-width:0.331322"
       d="M 126.65427,19.471287 C 135.41022,10.584351 143.0823,2.8257946 143.70334,2.2300498 l 1.12917,-1.0831725 7.48021,0.089206 7.48022,0.089206 -16.77055,17.0630937 -16.77055,17.063095 -7.75874,0.08894 -7.75874,0.08894 z"
       id="path8"
       transform="matrix(0.26458333,0,0,0.26458333,36.315774,17.580919)" />
    <path
       style="opacity:1;fill:#ffffff;fill-opacity:1;stroke-width:0.331322"
       d="M 181.06759,18.388383 198.04604,1.1596278 h 7.65156 7.65156 l -6.29478,6.3779527 C 203.59225,11.045455 195.95982,18.798395 190.09343,24.766336 l -10.66617,10.850803 h -7.66906 -7.66905 z"
       id="path9"
       transform="matrix(0.26458333,0,0,0.26458333,36.315774,17.580919)" />
  </g>
</svg>
